<svg xmlns="http://www.w3.org/2000/svg" width="420" height="90" viewBox="0 0 420 90">
  <g id="Group_7" data-name="Group 7" transform="translate(-914 -7228)">
    <g id="Facebook" transform="translate(1244 7228)">
      <rect id="Rectangle_547" data-name="Rectangle 547" width="90" height="90" fill="none"/>
      <path id="Path_1" data-name="Path 1" d="M110.33,89.5V48.727h13.922l1.989-15.911H110.33V22.872c0-4.475,1.492-7.955,7.955-7.955h8.453V.5c-1.989,0-6.961-.5-12.43-.5C102.375,0,93.922,7.458,93.922,20.883V32.816H80V48.727H93.922V89.5Z" transform="translate(-57.625)" fill="#fff" fill-rule="evenodd"/>
    </g>
    <g id="Twitter" transform="translate(1084 7228)">
      <rect id="Rectangle_548" data-name="Rectangle 548" width="90" height="90" transform="translate(0)" fill="none"/>
      <path id="Path_2" data-name="Path 2" d="M66.341,74.593c33.811,0,52.208-27.844,52.208-52.208V19.9a40.417,40.417,0,0,0,8.95-9.447,41.276,41.276,0,0,1-10.442,2.983,19.345,19.345,0,0,0,7.955-9.944,45.606,45.606,0,0,1-11.436,4.475A17.757,17.757,0,0,0,100.152,2a18.681,18.681,0,0,0-18.4,18.4,9.693,9.693,0,0,0,.5,3.978C66.839,23.38,53.414,16.419,44.464,4.983a19.042,19.042,0,0,0-2.486,9.447,19.755,19.755,0,0,0,7.955,15.414,16.762,16.762,0,0,1-8.453-2.486h0A18.172,18.172,0,0,0,56.4,45.258a15.328,15.328,0,0,1-4.972.5,8.461,8.461,0,0,1-3.481-.5c2.486,7.458,8.95,12.43,17.4,12.928a37.541,37.541,0,0,1-22.872,7.955,13.766,13.766,0,0,1-4.475-.5,46.931,46.931,0,0,0,28.341,8.95" transform="translate(-38 3.594)" fill="#fff" fill-rule="evenodd"/>
    </g>
    <g id="Instagram" transform="translate(914 7228)">
      <path id="Path_3" data-name="Path 3" d="M44.749,7.955c11.933,0,13.425,0,17.9.5A23.062,23.062,0,0,1,71.1,9.944,17.462,17.462,0,0,1,79.555,18.4a23.062,23.062,0,0,1,1.492,8.453c0,4.475.5,5.967.5,17.9s0,13.425-.5,17.9A23.062,23.062,0,0,1,79.555,71.1,17.462,17.462,0,0,1,71.1,79.555a23.062,23.062,0,0,1-8.453,1.492c-4.475,0-5.967.5-17.9.5s-13.425,0-17.9-.5A23.062,23.062,0,0,1,18.4,79.555,17.462,17.462,0,0,1,9.944,71.1a23.062,23.062,0,0,1-1.492-8.453c0-4.475-.5-5.967-.5-17.9s0-13.425.5-17.9A23.062,23.062,0,0,1,9.944,18.4a17.858,17.858,0,0,1,3.481-4.972A8.406,8.406,0,0,1,18.4,9.944,23.062,23.062,0,0,1,26.85,8.453c4.475-.5,5.967-.5,17.9-.5m0-7.955c-11.933,0-13.922,0-18.4.5A30.7,30.7,0,0,0,15.414,2.486,19.465,19.465,0,0,0,7.458,7.458a19.465,19.465,0,0,0-4.972,7.955C.994,18.4.5,21.38.5,26.352,0,30.827,0,32.816,0,44.749s0,13.922.5,18.4A30.7,30.7,0,0,0,2.486,74.085a19.465,19.465,0,0,0,4.972,7.955,19.465,19.465,0,0,0,7.955,4.972A30.7,30.7,0,0,0,26.352,89c4.475.5,6.464.5,18.4.5s13.922,0,18.4-.5a30.7,30.7,0,0,0,10.939-1.989A20.861,20.861,0,0,0,87.013,74.085,30.7,30.7,0,0,0,89,63.146c0-4.972.5-6.464.5-18.4s0-13.922-.5-18.4a30.7,30.7,0,0,0-1.989-10.939,19.465,19.465,0,0,0-4.972-7.955,19.465,19.465,0,0,0-7.955-4.972A30.7,30.7,0,0,0,63.146.5C58.671,0,56.683,0,44.749,0m0,21.877A22.5,22.5,0,0,0,21.877,44.749,22.872,22.872,0,1,0,44.749,21.877m0,37.788A14.65,14.65,0,0,1,29.833,44.749,14.65,14.65,0,0,1,44.749,29.833,14.65,14.65,0,0,1,59.666,44.749,14.65,14.65,0,0,1,44.749,59.666M68.616,15.414a5.469,5.469,0,1,0,5.469,5.469,5.518,5.518,0,0,0-5.469-5.469" fill="#fff" fill-rule="evenodd"/>
    </g>
  </g>
</svg>
